<?xml version="1.0" standalone="no"?>
<!DOCTYPE svg PUBLIC "-//W3C//DTD SVG 20010904//EN"
 "http://www.w3.org/TR/2001/REC-SVG-20010904/DTD/svg10.dtd">
<svg version="1.0" xmlns="http://www.w3.org/2000/svg"
 width="422.000000pt" height="119.000000pt" viewBox="0 0 422.000000 119.000000"
 preserveAspectRatio="xMidYMid meet">

<g transform="translate(0.000000,119.000000) scale(0.100000,-0.100000)"
fill="#000000" stroke="none">
<path d="M288 668 l-3 -523 -59 -3 c-41 -2 -62 1 -67 10 -5 7 -9 84 -9 171 l0
157 -75 0 -75 0 0 -209 c0 -207 0 -210 24 -238 l24 -28 148 -3 c185 -4 209 0
234 41 19 31 20 55 20 590 l0 557 -80 0 -80 0 -2 -522z"/>
<path d="M595 1175 c-80 -28 -75 7 -75 -580 0 -511 0 -523 20 -548 30 -38 77
-47 248 -47 l152 0 0 70 0 70 -114 0 c-63 0 -121 3 -130 6 -13 5 -16 23 -16
93 0 54 5 92 12 99 8 8 52 12 130 12 l118 0 0 65 0 65 -118 0 c-78 0 -122 4
-130 12 -8 8 -12 46 -12 105 0 81 2 94 19 103 11 5 69 10 130 10 l111 0 0 240
0 240 -152 0 c-106 -1 -165 -5 -193 -15z"/>
<path d="M1053 1166 l-28 -24 -3 -526 c-3 -577 -2 -585 55 -607 17 -6 88 -9
176 -7 l149 3 24 28 24 28 0 537 c-1 406 -4 541 -13 553 -26 33 -55 39 -206
39 -144 0 -151 -1 -178 -24z m218 -466 c18 -10 19 -24 19 -273 0 -191 -3 -266
-12 -275 -16 -16 -70 -16 -86 0 -9 9 -12 83 -12 269 0 255 0 258 22 273 26 19
42 20 69 6z"/>
<path d="M1530 595 l0 -595 75 0 75 0 2 172 3 173 95 2 c116 4 134 7 160 35
19 21 20 34 20 374 0 345 0 352 -22 379 -37 47 -72 55 -248 55 l-160 0 0 -595z
m268 93 c15 -15 16 -161 2 -189 -9 -15 -22 -19 -65 -19 l-55 0 0 110 0 110 53
0 c29 0 58 -5 65 -12z"/>
<path d="M2133 1180 c-48 -19 -50 -31 -97 -575 -25 -286 -48 -539 -51 -562
l-6 -43 75 0 c42 0 76 1 77 3 1 1 8 78 17 172 l17 170 70 0 70 0 17 -170 c9
-94 16 -171 17 -172 1 -2 37 -3 81 -3 73 0 80 2 80 20 0 31 -109 1082 -115
1108 -10 41 -60 62 -150 61 -44 0 -90 -4 -102 -9z m136 -492 c5 -13 11 -63 15
-113 l7 -90 -56 0 -56 0 7 90 c9 114 16 135 49 135 17 0 28 -7 34 -22z"/>
<path d="M2552 598 l3 -593 73 -3 72 -3 0 176 0 175 53 0 c40 0 59 -5 75 -20
12 -12 22 -24 23 -28 0 -4 6 -72 12 -152 l12 -145 78 -3 c91 -3 85 -21 61 185
-16 141 -25 176 -51 205 -14 15 -13 20 6 44 20 26 21 36 21 346 0 283 -2 323
-17 349 -29 49 -74 59 -258 59 l-165 0 2 -592z m272 90 c18 -26 22 -131 6
-172 -9 -24 -14 -26 -70 -26 l-60 0 0 110 0 110 54 0 c45 0 58 -4 70 -22z"/>
<path d="M3090 595 l0 -595 153 0 c170 0 217 9 247 47 20 25 20 37 20 547 0
466 -2 524 -16 545 -30 42 -71 51 -244 51 l-160 0 0 -595z m274 99 c14 -13 16
-51 16 -265 0 -236 -1 -250 -20 -269 -15 -15 -33 -20 -75 -20 l-55 0 0 285 0
285 59 0 c41 0 65 -5 75 -16z"/>
<path d="M3570 821 c0 -367 0 -368 23 -402 33 -50 60 -59 170 -59 l97 0 0
-104 c0 -120 3 -116 -96 -116 l-64 0 0 -70 0 -70 93 0 c106 0 159 12 187 42
19 21 20 36 20 585 l0 563 -70 0 -70 0 0 -350 0 -350 -58 0 c-32 0 -63 5 -70
12 -9 9 -12 100 -12 350 l0 338 -75 0 -75 0 0 -369z"/>
<path d="M4080 775 l0 -415 70 0 70 0 0 415 0 415 -70 0 -70 0 0 -415z"/>
<path d="M4080 245 l0 -65 70 0 70 0 0 65 0 65 -70 0 -70 0 0 -65z"/>
</g>
</svg>
